<?xml version="1.0" encoding="UTF-8" standalone="no"?>
<svg
   xmlns:dc="http://purl.org/dc/elements/1.1/"
   xmlns:cc="http://creativecommons.org/ns#"
   xmlns:rdf="http://www.w3.org/1999/02/22-rdf-syntax-ns#"
   xmlns:svg="http://www.w3.org/2000/svg"
   xmlns="http://www.w3.org/2000/svg"
   viewBox="0 0 187.39999 200.56"
   height="200.56"
   width="187.39999"
   xml:space="preserve"
   id="svg2"
   version="1.1"><metadata
     id="metadata8"><rdf:RDF><cc:Work
         rdf:about=""><dc:format>image/svg+xml</dc:format><dc:type
           rdf:resource="http://purl.org/dc/dcmitype/StillImage" /></cc:Work></rdf:RDF></metadata><defs
     id="defs6" /><g
     transform="matrix(1.3333333,0,0,-1.3333333,0,200.56)"
     id="g10"><g
       transform="scale(0.1)"
       id="g12"><path
         id="path14"
         style="fill:#f1491c;fill-opacity:1;fill-rule:nonzero;stroke:none"
         d="M 1405.54,692.578 C 1405.54,350.461 1161.1,65.4492 837.352,2.67969 L 709.945,229.922 576.922,1.03906 C 248.852,60.3516 0,347.398 0,692.578 0,1080.7 314.641,1395.34 702.758,1395.34 c 388.142,0 702.782,-314.64 702.782,-702.762" /><path
         id="path16"
         style="fill:#100f0d;fill-opacity:1;fill-rule:nonzero;stroke:none"
         d="M 239.922,1503.33 78.5078,1407.7 c -2.8359,-1.68 -3.7305,-5.37 -1.9805,-8.16 L 696.934,409.672 c 1.812,-2.891 5.703,-3.633 8.453,-1.602 v 0 c 2.183,1.61 2.98,4.5 1.922,7 l -458.993,1085.5 c -1.382,3.27 -5.336,4.57 -8.394,2.76" /><path
         id="path18"
         style="fill:#100f0d;fill-opacity:1;fill-rule:nonzero;stroke:none"
         d="M 1151.87,1462 569.93,8.03906 c -1.313,-3.27734 0.547,-6.96093 3.961,-7.847654 v 0 c 2.515,-0.660156 5.164,0.417969 6.504,2.648434 L 1394.44,1355.73 c 1.82,3.04 0.56,6.99 -2.68,8.4 l -232.11,101.07 c -3.03,1.32 -6.56,-0.13 -7.78,-3.2" /></g></g></svg>